# 3ds Max Wavefront OBJ Exporter v0.97b - (c)2007 guruware
# File Created: 25.09.2013 20:10:06

mtllib leaf.mtl

#
# object Object001
#

v  0.1321 0.1840 0.1475
v  0.8970 0.0167 0.9197
v  4.0970 0.1988 0.1256
v  1.2716 0.2544 -0.3362
v  3.5982 -0.3200 -3.3347
v  0.6124 -0.0974 -1.0223
v  0.1120 0.3713 -5.2747
v  -0.4215 0.0299 -1.1592
v  -3.4844 -0.1460 -3.4151
v  -1.2183 -0.1221 -0.3834
v  -3.9905 0.5994 0.1432
v  -0.5738 0.0519 0.8676
# 12 vertices

vn -0.0055 0.9999 -0.0104
vn -0.0025 0.9768 0.2141
vn -0.0027 0.9832 0.1827
vn -0.1038 0.9895 -0.1005
vn -0.1757 0.9343 -0.3101
vn 0.2119 0.9664 -0.1455
vn 0.1091 0.9934 0.0339
vn -0.1519 0.9870 -0.0521
vn -0.1403 0.9888 0.0508
vn -0.1289 0.9650 -0.2284
vn 0.0976 0.9666 -0.2369
vn 0.0962 0.9580 0.2700
# 12 vertex normals

vt 1.0000 1.0000 1.0000
# 1 texture coords

g Object001
usemtl Leaf
s 131072
f 1/1/1 2/1/2 3/1/3 
f 1/1/1 3/1/3 4/1/4 
f 1/1/1 4/1/4 5/1/5 
f 1/1/1 5/1/5 6/1/6 
f 1/1/1 6/1/6 7/1/7 
f 1/1/1 7/1/7 8/1/8 
f 1/1/1 8/1/8 9/1/9 
f 1/1/1 9/1/9 10/1/10 
f 1/1/1 10/1/10 11/1/11 
f 1/1/1 11/1/11 12/1/12 
# 0 polygons - 10 triangles

